<svg xmlns="http://www.w3.org/2000/svg" viewBox="0 0 64 64"><path fill="#4285f4" d="M59 33c0-2-.2-4-.6-6H32v11h15c-.7 3.5-2.7 6.5-5.7 8.5v7h9.2C56 48.5 59 41.5 59 33z"/><path fill="#34a853" d="M32 60c7.7 0 14.2-2.5 18.9-6.8l-9.2-7c-2.6 1.7-5.8 2.7-9.7 2.7-7.4 0-13.7-5-16-11.8H6.5v7.2C11.2 53.6 20.8 60 32 60z"/><path fill="#fbbc05" d="M16 37c-.6-1.7-.9-3.5-.9-5.4s.3-3.7.9-5.4V19H6.5A28 28 0 0 0 3.5 32a28 28 0 0 0 3 12.6z"/><path fill="#ea4335" d="M32 15c4.2 0 8 1.5 11 4.3l8.2-8.2C46.2 6.4 39.7 3.5 32 3.5 20.8 3.5 11.2 10 6.5 19l9.5 7.3C18.3 20 24.6 15 32 15z"/></svg>
